<svg width="100" height="100" viewBox="0 0 100 100" fill="none" xmlns="http://www.w3.org/2000/svg">
<path fill-rule="evenodd" clip-rule="evenodd" d="M60.4669 52.1233C70.7682 46.173 74.2977 32.9943 68.3502 22.6879L71.6953 20.7557C78.7094 32.9104 74.5469 48.4526 62.3982 55.4701L60.4669 52.1233Z" fill="#6C5DD3"/>
<path d="M71.2944 15C76.0165 15 79.8445 18.8299 79.8445 23.5542C79.8445 28.2786 76.0165 32.1085 71.2944 32.1085C66.5724 32.1085 62.7444 28.2786 62.7444 23.5542C62.7444 18.8299 66.5724 15 71.2944 15Z" fill="#6C5DD3"/>
<path d="M49.0642 86.0001C33.2072 86.0001 20.3156 73.2977 20 57.5086C24.0958 59.6123 28.5762 61.0503 33.3047 61.6832C35.101 68.7699 41.6666 74.0243 49.4912 74.0243C58.6992 74.0243 66.1638 66.7476 66.1638 57.7713C66.1638 56.5544 66.0266 55.3688 65.7665 54.2284C69.9102 51.5382 73.001 47.788 74.8869 43.5446C76.962 47.5478 78.1343 52.0948 78.1343 56.9157C78.1343 72.9785 65.1192 86.0001 49.0642 86.0001Z" fill="#6C5DD3"/>
<path d="M73.2275 40.7404C68.011 32.9556 59.1357 27.8313 49.0642 27.8313C36.6124 27.8313 25.9892 35.6639 21.848 46.6731C25.5165 49.0445 29.6942 50.6691 34.1758 51.3376C36.7327 45.5613 42.6276 41.5182 49.4912 41.5182C56.487 41.5182 62.4765 45.7186 64.9506 51.6734C68.9156 48.9171 71.7345 45.0488 73.2275 40.7404Z" fill="#6C5DD3"/>
</svg>
