<?xml version="1.0" standalone="no"?>
<!DOCTYPE svg PUBLIC "-//W3C//DTD SVG 20010904//EN"
 "http://www.w3.org/TR/2001/REC-SVG-20010904/DTD/svg10.dtd">
<svg version="1.0" xmlns="http://www.w3.org/2000/svg"
 width="700.000000pt" height="700.000000pt" viewBox="0 0 700.000000 700.000000"
 preserveAspectRatio="xMidYMid meet">
<metadata>
Created by potrace 1.14, written by Peter Selinger 2001-2017
</metadata>
<g transform="translate(0.000000,700.000000) scale(0.100000,-0.100000)"
fill="#000000" stroke="none">
<path d="M3278 6995 c-1 -1 -42 -5 -89 -9 -47 -4 -95 -8 -105 -10 -10 -2 -41
-7 -69 -10 -335 -44 -715 -158 -1030 -312 -180 -87 -448 -247 -555 -331 -8 -6
-51 -40 -95 -74 -338 -263 -653 -628 -875 -1014 -47 -82 -170 -327 -170 -339
0 -3 -11 -29 -24 -58 -41 -92 -114 -303 -142 -413 -4 -16 -8 -34 -10 -40 -5
-16 -25 -98 -30 -120 -39 -194 -47 -242 -60 -350 -26 -230 -26 -667 1 -826 2
-13 6 -46 9 -74 9 -78 22 -152 51 -285 21 -96 91 -339 114 -395 5 -11 25 -65
46 -120 50 -132 181 -398 250 -508 30 -49 55 -90 55 -93 0 -3 4 -10 10 -17 5
-7 46 -64 91 -126 416 -590 1033 -1051 1718 -1283 199 -67 449 -127 640 -154
25 -3 57 -8 71 -10 162 -25 683 -25 841 1 13 2 47 7 74 10 71 10 87 13 115 18
14 3 43 8 65 12 115 21 314 74 455 122 557 188 1090 542 1480 982 36 41 70 79
75 85 6 6 26 31 45 56 19 25 38 50 43 55 78 97 215 305 289 440 51 93 148 290
148 300 0 2 11 28 24 57 57 127 151 421 182 573 17 81 54 301 59 350 4 33 9
71 11 85 9 47 11 525 4 605 -15 157 -21 210 -25 225 -2 8 -7 35 -10 60 -17
129 -80 384 -136 552 -180 534 -477 1004 -889 1404 -165 160 -231 213 -510
411 -111 79 -424 244 -600 316 -224 91 -559 185 -760 212 -19 3 -46 7 -60 10
-13 2 -52 7 -86 11 -33 3 -74 8 -90 10 -32 5 -540 14 -546 9z"/>
</g>
</svg>
